<svg width="34" height="34" viewBox="0 0 34 34" fill="none" xmlns="http://www.w3.org/2000/svg">
<path id="Subtract" fill-rule="evenodd" clip-rule="evenodd" d="M17 34C26.3888 34 34 26.3888 34 17C34 7.61116 26.3888 0 17 0C7.61116 0 0 7.61116 0 17C0 26.3888 7.61116 34 17 34ZM8.90082 9.34554C8.33711 9.95261 8.37226 10.9017 8.97933 11.4654L14.9658 17.0242L9.31967 22.267C8.71261 22.8307 8.67746 23.7798 9.24116 24.3869C9.80486 24.994 10.754 25.0291 11.361 24.4654L17.1702 19.0712L22.9793 24.4654C23.5864 25.0291 24.5355 24.994 25.0992 24.3869C25.6629 23.7798 25.6278 22.8307 25.0207 22.267L19.3746 17.0242L25.361 11.4654C25.9681 10.9017 26.0032 9.95261 25.4395 9.34554C24.8758 8.73847 23.9267 8.70332 23.3197 9.26703L17.1702 14.9773L11.0207 9.26703C10.4136 8.70332 9.46452 8.73847 8.90082 9.34554Z" fill="#111E27"/>
</svg>
