<svg width="97" height="59" viewBox="0 0 97 59" fill="none" xmlns="http://www.w3.org/2000/svg">
<g id="Layer_1" clip-path="url(#clip0_134_3466)">
<path id="Vector" d="M48.5 58.304L0 29.1529L48.5 0L97 29.1529L48.5 58.3058V58.304ZM4.77769 29.1529L48.5 55.4346L92.2223 29.1529L48.5 2.8712L4.77769 29.1529Z" fill="#111E27"/>
<g id="Group">
<path id="Vector_2" d="M31.5302 37.5356H26.1688C23.8231 37.5356 22.6838 36.3963 22.6838 34.0507V31.7773H26.3928V33.8179C26.3928 34.0454 26.4086 34.0612 26.6361 34.0612H30.9712C31.1987 34.0612 31.2145 34.0454 31.2145 33.8179V31.8602C31.2145 31.504 31.1616 31.4158 30.5955 31.2853L26.264 30.3541C24.518 29.9767 22.7315 29.2571 22.7315 26.781V24.2642C22.7315 21.9186 23.8725 20.7793 26.2164 20.7793H31.2516C33.5972 20.7793 34.7365 21.9186 34.7365 24.2642V26.3506H31.0294V24.497C31.0294 24.2695 31.0135 24.2537 30.786 24.2537H26.7772C26.5497 24.2537 26.5339 24.2695 26.5339 24.497V26.2677C26.5339 26.624 26.5868 26.7122 27.1547 26.8427L31.4861 27.7739C33.2321 28.1513 35.0187 28.8709 35.0187 31.347V34.0507C35.0187 36.3963 33.8776 37.5356 31.5338 37.5356H31.5302Z" fill="#111E27"/>
<path id="Vector_3" d="M41.567 37.5352H37.7664V20.7754H41.567V37.5352Z" fill="#111E27"/>
<path id="Vector_4" d="M55.6445 37.5352H44.8052V20.7754H48.6058V34.0132H55.6445V37.5352Z" fill="#111E27"/>
<path id="Vector_5" d="M63.5808 37.5352H59.3375L54.1418 20.7754H58.297L61.5068 32.7487L64.7166 20.7754H68.7783L63.5826 37.5352H63.5808Z" fill="#111E27"/>
<path id="Vector_6" d="M74.3161 37.5352H70.5137V20.7754H74.3161V37.5352Z" fill="#111E27"/>
</g>
<g id="Group_2">
<path id="Vector_7" d="M33.6167 40.4033H34.6661L35.6414 42.6149L36.6114 40.4033H37.6537V44.3715H36.7348V41.9624L35.9359 43.8671H35.3116L34.5126 41.9624V44.3715H33.6167V40.4033Z" fill="#111E27"/>
<path id="Vector_8" d="M40.5655 43.533H39.3009L39.0734 44.3725H38.0981L39.3009 40.4043H40.599L41.8071 44.3725H40.793L40.5655 43.533ZM40.3503 42.7341L39.9359 41.1803L39.5161 42.7341H40.3503Z" fill="#111E27"/>
<path id="Vector_9" d="M42.56 41.2252H41.5283V40.4033H44.5388V41.2252H43.5018V44.3715H42.56V41.2252Z" fill="#111E27"/>
<path id="Vector_10" d="M45.054 40.4033H47.7858V41.2199H45.994V41.9394H47.4278V42.7437H45.994V43.5549H47.7858V44.3715H45.054V40.4033Z" fill="#111E27"/>
<path id="Vector_11" d="M51.5601 44.3715H50.5795L49.9164 43.0047H49.3661V44.3715H48.4243V40.4033H50.6359C51.1632 40.4033 51.419 40.652 51.419 41.1864V42.1793C51.419 42.6273 51.2426 42.8706 50.874 42.9394L51.5601 44.3733V44.3715ZM50.3696 42.2234C50.449 42.2234 50.4772 42.2005 50.4772 42.1158V41.3116C50.4772 41.2269 50.449 41.204 50.3696 41.204H49.3661V42.2252H50.3696V42.2234Z" fill="#111E27"/>
<path id="Vector_12" d="M52.126 40.4033H53.0678V44.3715H52.126V40.4033Z" fill="#111E27"/>
<path id="Vector_13" d="M55.9795 43.533H54.715L54.4875 44.3725H53.5122L54.715 40.4043H56.013L57.2211 44.3725H56.207L55.9795 43.533ZM55.7644 42.7341L55.3499 41.1803L54.9302 42.7341H55.7644Z" fill="#111E27"/>
<path id="Vector_14" d="M57.6692 40.4033H58.611V43.5444H60.2617V44.3715H57.671V40.4033H57.6692Z" fill="#111E27"/>
<path id="Vector_15" d="M60.6216 43.5898V43.0678H61.551V43.4699C61.551 43.5493 61.5792 43.5775 61.6586 43.5775H62.5545C62.6339 43.5775 62.6621 43.5493 62.6621 43.4699V43.0554C62.6621 42.9655 62.6233 42.9355 62.5034 42.9073L61.4487 42.6516C60.9214 42.5211 60.6322 42.3729 60.6322 41.835V41.1825C60.6322 40.6498 60.8879 40.3994 61.4152 40.3994H62.7538C63.2811 40.3994 63.5351 40.6481 63.5351 41.1825V41.6587H62.6057V41.3006C62.6057 41.216 62.5775 41.1931 62.4981 41.1931H61.6815C61.6022 41.1931 61.5739 41.216 61.5739 41.3006V41.6692C61.5739 41.7592 61.6075 41.7874 61.7327 41.8174L62.7873 42.0731C63.3147 42.2036 63.6039 42.35 63.6039 42.8897V43.5863C63.6039 44.1136 63.3482 44.3694 62.8226 44.3694H61.4046C60.8773 44.3694 60.6216 44.1136 60.6216 43.5863V43.5898Z" fill="#111E27"/>
</g>
</g>
<defs>
<clipPath id="clip0_134_3466">
<rect width="97" height="58.304" fill="white"/>
</clipPath>
</defs>
</svg>
